<svg width="408" height="313" viewBox="0 0 408 313" fill="none" xmlns="http://www.w3.org/2000/svg">
<g clip-path="url(#clip0_48_297)">
<path d="M101.843 250.277L90.0586 209.372C90.0586 209.372 104.736 206.695 126.912 197.807C145.767 190.205 171.694 173.179 171.694 173.179L190.763 246.101C190.763 246.101 169.122 260.878 140.411 270.408C113.842 279.295 109.45 277.047 109.45 277.047L101.843 250.277Z" fill="white" stroke="#262626" stroke-width="0.496227" stroke-miterlimit="10"/>
<path d="M180.692 252.311L164.194 186.885C164.194 186.885 150.159 195.772 135.482 202.626C110.199 214.297 92.415 217.296 92.415 217.296L109.556 277.153C109.449 277.046 140.089 277.689 180.692 252.311Z" fill="#262626"/>
<path d="M17.3145 216.439C17.3145 216.439 30.8131 234.321 69.9165 231.216C109.02 228.11 157.229 204.017 157.229 204.017L175.763 275.761C175.763 275.761 115.769 303.067 81.2725 300.39C53.311 298.248 41.4193 287.219 41.4193 287.219L17.3145 216.439Z" fill="white" stroke="#262626" stroke-width="0.496227" stroke-miterlimit="10"/>
<path d="M17.7441 246.103L85.6661 167.292L201.155 215.478" stroke="#FF6B00" stroke-width="0.496227" stroke-miterlimit="10"/>
<path d="M215.296 166.004H144.803V130.989H215.296V166.004Z" fill="white" stroke="#FF6B00" stroke-width="0.496227" stroke-miterlimit="10"/>
<path d="M285.577 41.2522H293.612C295.326 42.6442 297.147 43.9292 298.862 45.4283C299.076 45.6425 299.29 45.7496 299.504 45.9637V55.1726H285.577V41.2522Z" fill="white" stroke="#FF6B00" stroke-width="0.496227" stroke-miterlimit="10"/>
<path d="M271.651 27.3333L257.724 27.3333V41.2537L271.651 41.2537V55.1742H257.724V69.0946H271.651H285.578V83.015H271.651V96.9354H285.578V83.015L299.505 83.015H313.433V96.9354H327.36H341.287V83.015V69.0946H355.214V83.015H361.428L343.322 171.784C343.322 171.784 331.217 182.171 307.969 176.603C273.151 168.251 261.366 145.014 234.583 130.773C217.763 121.778 211.55 128.738 211.55 128.738L220.656 50.6768C220.656 50.6768 188.838 48.8564 177.267 24.0138C170.411 9.23679 189.159 0.991623 206.193 0.991623C223.977 0.991623 242.725 9.2368 271.651 26.3696V27.3333Z" fill="white" stroke="#FF6B00" stroke-width="0.496227" stroke-miterlimit="10"/>
<path d="M271.65 27.3316H273.365C277.436 29.7944 281.507 32.4714 285.578 35.3626V41.252H271.65V27.3316Z" fill="white" stroke="#FF6B00" stroke-width="0.496227" stroke-miterlimit="10"/>
<path d="M299.504 55.1743H313.11C313.217 55.1743 313.324 55.2814 313.431 55.2814V69.0947H299.504V55.1743Z" fill="white" stroke="#FF6B00" stroke-width="0.496227" stroke-miterlimit="10"/>
<path d="M327.357 60.9569C332.393 62.3489 336.999 62.8843 341.285 62.9914V69.095H327.357V60.9569Z" fill="white" stroke="#FF6B00" stroke-width="0.496227" stroke-miterlimit="10"/>
<path d="M365.925 55.1746H366.997L364.211 69.095H355.212V60.9569C360.247 59.3507 363.997 56.9949 365.925 55.1746Z" fill="white" stroke="#FF6B00" stroke-width="0.496227" stroke-miterlimit="10"/>
<path d="M327.36 83.0144H313.433V69.094H327.36V83.0144Z" fill="white" stroke="#FF6B00" stroke-width="0.496227" stroke-miterlimit="10"/>
<path d="M224.191 126.706L237.369 32.9035C237.369 32.9035 211.443 42.2195 183.695 29.6911L175.768 121.03C175.768 121.03 186.588 135.486 211.443 128.633C211.443 128.633 217.335 124.457 224.191 126.706Z" fill="#262626"/>
<path d="M211.441 128.631L208.227 150.904C208.227 150.904 174.48 147.906 164.195 123.813L175.658 18.6601C175.658 18.6601 175.551 25.6203 193.335 36.8637C204.049 43.6098 221.404 43.2885 221.404 43.2885L211.441 128.631Z" fill="white" stroke="#FF6B00" stroke-width="0.496227" stroke-miterlimit="10"/>
<path d="M285.576 168.36C285.576 168.36 296.289 178.319 313.645 177.248C331 176.177 378.996 151.549 378.996 151.549L399.137 83.5527C399.137 83.5527 341.499 110.216 325.215 109.252C309.681 108.395 298.968 98.5439 298.968 98.5439L285.576 168.36Z" fill="#262626"/>
<path d="M293.076 188.705C293.076 188.705 303.897 195.558 321.145 197.592C336.679 199.413 386.496 171.893 386.496 171.893L406.637 103.897C406.637 103.897 348.999 128.74 332.715 129.596C316.431 130.453 305.932 121.887 305.932 121.887L293.076 188.705Z" fill="white" stroke="#FF6B00" stroke-width="0.496227" stroke-miterlimit="10"/>
<path d="M333.464 195.557L341.713 164.932L378.138 149.192L369.139 180.994L342.463 192.773L333.464 195.557Z" fill="#262626"/>
<path d="M335.5 55.176L299.504 55.176V32.368H335.5V55.176Z" fill="white" stroke="#FF6B00" stroke-width="0.496227" stroke-miterlimit="10"/>
<path d="M305.642 43.2304L310.24 40.8884V41.8023L306.741 43.4874V43.5445L310.24 45.2296V46.1435L305.642 43.8016V43.2304ZM314.611 48.3141H313.84L311.483 39.5603H312.254L314.611 48.3141ZM320.243 40.6599L323.442 43.8587L320.243 47.0575L319.694 46.5077L321.957 44.2514H316.095V43.466H321.957L319.694 41.2026L320.243 40.6599ZM330.042 43.2304V43.8016L325.444 46.1435V45.2296L328.943 43.5445V43.4874L325.444 41.8023V40.8884L330.042 43.2304Z" fill="black"/>
<path d="M340.644 199.519L349 168.894L385.425 153.153L377.069 182.6L340.644 199.519Z" fill="white" stroke="#262626" stroke-width="0.496227" stroke-miterlimit="10"/>
<path d="M290.933 212.797L285.684 242.244L249.259 257.878L254.508 229.716L290.933 212.797Z" fill="white" stroke="#262626" stroke-width="0.496227" stroke-miterlimit="10"/>
<path d="M271.65 230.357C273.662 230.357 275.293 231.987 275.293 233.998C275.293 236.008 273.662 237.638 271.65 237.638C269.639 237.638 268.008 236.008 268.008 233.998C268.008 231.987 269.639 230.357 271.65 230.357Z" fill="white" stroke="#262626" stroke-width="0.496227" stroke-miterlimit="10"/>
<path d="M364.75 167.286L367.75 156.471L380.606 150.903L377.606 161.29L364.75 167.286Z" fill="white" stroke="#262626" stroke-width="0.496227" stroke-miterlimit="10"/>
<path d="M331.111 140.624L335.825 123.277L355.002 117.388L350.288 134.092L331.111 140.624Z" fill="white" stroke="#262626" stroke-width="0.496227" stroke-miterlimit="10"/>
<path d="M279.685 113.64C287.436 113.64 293.719 119.921 293.719 127.668C293.719 135.415 287.436 141.695 279.685 141.695C271.934 141.695 265.65 135.415 265.65 127.668C265.65 119.921 271.934 113.64 279.685 113.64Z" fill="#262626"/>
<path d="M281.507 120.387C289.258 120.387 295.541 126.667 295.541 134.414C295.541 142.162 289.258 148.442 281.507 148.442C273.756 148.442 267.473 142.162 267.473 134.414C267.473 126.667 273.756 120.387 281.507 120.387Z" fill="white" stroke="#262626" stroke-width="0.496227" stroke-miterlimit="10"/>
<path d="M281.506 134.414L204.156 211.726" stroke="#FF6B00" stroke-width="0.496227" stroke-miterlimit="10"/>
<path d="M201.155 201.447C208.906 201.447 215.19 207.728 215.19 215.475C215.19 223.222 208.906 229.502 201.155 229.502C193.404 229.502 187.121 223.222 187.121 215.475C187.121 207.728 193.404 201.447 201.155 201.447Z" fill="white" stroke="#FF6B00" stroke-width="0.496227" stroke-miterlimit="10"/>
<path d="M202.656 229.395L199.014 233.999L190.765 214.511L205.442 198.877L206.942 202.625" stroke="#FF6B00" stroke-width="0.496227" stroke-miterlimit="10"/>
<path d="M151.854 152.753L157.732 149.759V150.927L153.259 153.082V153.155L157.732 155.309V156.477L151.854 153.483V152.753ZM164.853 149.467H159.011V148.463H164.853V149.467ZM170.664 149.467H164.822V148.463H170.664V149.467ZM176.475 149.467H170.633V148.463H176.475V149.467ZM180.752 159.252H179.766L176.754 148.061H177.74L180.752 159.252ZM186.866 149.467H181.025V148.463H186.866V149.467ZM194.028 152.753V153.483L188.15 156.477V155.309L192.623 153.155V153.082L188.15 150.927V149.759L194.028 152.753Z" fill="black"/>
<path d="M85.7723 163.543C88.1982 163.543 90.1647 165.508 90.1647 167.933C90.1647 170.358 88.1982 172.323 85.7723 172.323C83.3464 172.323 81.3799 170.358 81.3799 167.933C81.3799 165.508 83.3464 163.543 85.7723 163.543Z" fill="white" stroke="#F55800" stroke-width="0.496227" stroke-miterlimit="10"/>
<path d="M17.7438 231.216C27.3882 231.216 35.2064 239.031 35.2064 248.67C35.2064 258.31 27.3882 266.124 17.7438 266.124C8.09952 266.124 0.28125 258.31 0.28125 248.67C0.28125 239.031 8.09952 231.216 17.7438 231.216Z" fill="white" stroke="#F55800" stroke-width="0.496227" stroke-miterlimit="10"/>
<path d="M281.073 132.276C282.493 132.276 283.644 133.426 283.644 134.846C283.644 136.265 282.493 137.416 281.073 137.416C279.653 137.416 278.502 136.265 278.502 134.846C278.502 133.426 279.653 132.276 281.073 132.276Z" fill="white" stroke="#FF6B00" stroke-width="0.496227" stroke-miterlimit="10"/>
<path d="M28.9935 261.95C28.9935 261.95 29.6363 251.028 21.4943 242.89C13.3522 234.752 5.63867 236.037 5.63867 236.037" fill="white"/>
<path d="M28.9935 261.95C28.9935 261.95 29.6363 251.028 21.4943 242.89C13.3522 234.752 5.63867 236.037 5.63867 236.037" stroke="#F55800" stroke-width="0.496227" stroke-miterlimit="10"/>
<path d="M147.59 244.17L132.912 245.455L130.448 260.554L115.236 262.16L117.7 246.847L101.951 248.239L104.522 232.392L120.271 231.321L135.591 230.25L138.162 214.938L152.839 214.188L155.517 198.983L169.659 198.554L166.981 213.438L164.409 228.216L150.268 229.179L147.59 244.17Z" fill="#666666"/>
<path d="M145.019 258.946L142.555 273.723L127.878 275.543L130.449 260.552L145.019 258.946Z" fill="#262626"/>
<path d="M161.84 242.886L159.269 257.449L145.021 258.948L147.592 244.171L161.84 242.886Z" fill="#262626"/>
<path d="M172.874 256.054L170.303 270.296L156.697 272.009L159.268 257.446L172.874 256.054Z" fill="#262626"/>
<path d="M175.446 241.705L161.84 242.883L164.411 228.213L178.124 227.25L191.301 226.286L188.73 240.528L186.159 254.662L172.874 256.054L175.446 241.705Z" fill="#FF6B00"/>
<path d="M99.3815 263.874L115.237 262.16L112.666 277.473L127.879 275.545L125.308 290.43L110.095 292.571L94.3463 294.82L96.9175 279.4L80.5262 281.435L63.4922 283.576L65.9562 267.407L82.9903 265.587L85.5615 249.632L101.953 248.24L99.3815 263.874Z" fill="#F55800"/>
<path d="M68.4209 251.132L70.9921 234.749L88.0261 233.571L85.5621 249.633L68.4209 251.132Z" fill="#262626"/>
<path d="M75.5977 312.702L78.0617 297.175L94.3458 294.82L91.8818 310.132L75.5977 312.702Z" fill="#262626"/>
<path d="M142.558 273.723L156.7 272.01L154.128 286.358L151.557 300.6L137.523 302.849L122.846 305.204L125.31 290.427L139.987 288.393L142.558 273.723Z" fill="#262626"/>
<path d="M181.017 282.505L167.732 284.432L170.304 270.298L183.588 268.585L181.017 282.505Z" fill="#262626"/>
<path d="M198.907 253.274L196.336 267.087L183.587 268.586L186.158 254.666L198.907 253.274Z" fill="#262626"/>
<path d="M88.0254 233.571L90.5966 217.401L107.095 216.545L104.524 232.393L88.0254 233.571Z" fill="#262626"/>
<path d="M271.647 234L69.5947 108.074" stroke="#FF6B00" stroke-width="0.496227" stroke-miterlimit="10"/>
<path d="M55.7754 129.065L64.1317 98.333L100.557 82.5922L92.2004 112.039L55.7754 129.065Z" fill="white" stroke="#666666" stroke-width="0.496227" stroke-miterlimit="10"/>
</g>
<defs>
<clipPath id="clip0_48_297">
<rect width="406.889" height="312.031" fill="white" transform="matrix(1 0 0 -1 0.28125 312.705)"/>
</clipPath>
</defs>
</svg>
